<?xml version="1.0" standalone="no"?>
<!DOCTYPE svg PUBLIC "-//W3C//DTD SVG 20010904//EN"
 "http://www.w3.org/TR/2001/REC-SVG-20010904/DTD/svg10.dtd">
<svg version="1.0" xmlns="http://www.w3.org/2000/svg"
 width="1280.000000pt" height="425.000000pt" viewBox="0 0 1280.000000 425.000000"
 preserveAspectRatio="xMidYMid meet">
<metadata>
Created by potrace 1.15, written by Peter Selinger 2001-2017
</metadata>
<g transform="translate(0.000000,425.000000) scale(0.100000,-0.100000)"
fill="#000000" stroke="none">
<path d="M1169 4183 c-11 -60 -18 -73 -60 -115 -70 -69 -196 -124 -487 -214
-11 -3 -12 -17 -7 -57 16 -117 95 -364 120 -373 7 -3 78 11 157 31 104 27 173
38 253 42 154 7 175 0 267 -94 65 -68 77 -85 87 -131 12 -59 13 -117 3 -176
l-7 -38 -23 18 c-22 19 -22 19 -6 68 20 58 18 61 -72 92 -43 14 -58 16 -61 7
-3 -7 -12 -21 -21 -32 -17 -19 -18 -19 -59 -1 -35 15 -43 24 -43 45 l0 26
-117 -3 c-65 -1 -137 2 -160 6 -39 7 -43 6 -48 -17 -5 -18 -21 -31 -56 -46
-27 -12 -49 -23 -49 -25 0 -2 7 -23 15 -46 20 -57 19 -64 -9 -80 -22 -11 -29
-10 -65 19 -26 21 -47 30 -59 27 -26 -9 -56 16 -48 40 5 15 20 23 59 30 l52 9
0 75 0 75 -45 5 c-25 3 -51 9 -57 13 -14 9 -18 47 -5 47 4 0 23 13 41 28 l34
28 -26 49 c-45 87 -45 87 -99 63 -38 -16 -51 -18 -62 -9 -13 11 -12 19 5 58
11 26 18 52 15 59 -4 11 -106 74 -120 74 -3 0 -18 -18 -33 -40 -19 -30 -32
-40 -47 -38 -17 2 -22 11 -24 48 -5 63 -14 70 -88 70 -60 0 -65 -2 -74 -26 -6
-14 -10 -41 -10 -60 0 -50 -36 -47 -73 7 -47 68 -52 53 -55 -162 -2 -194 -2
-194 17 -163 75 123 239 150 342 57 99 -89 115 -227 38 -333 -89 -122 -290
-118 -370 8 l-29 46 0 -992 0 -993 25 -49 c71 -140 71 -305 -1 -427 -23 -41
-24 -46 -24 -262 0 -122 3 -221 8 -221 18 1 34 19 29 34 -7 17 8 22 18 6 11
-18 48 9 42 31 -4 15 -2 17 13 9 22 -12 45 11 36 36 -4 11 -1 14 12 10 26 -8
46 9 39 34 -4 17 -2 20 10 16 22 -9 45 13 38 35 -5 14 -2 17 8 13 23 -8 43 24
29 46 -10 16 -9 18 3 14 9 -4 22 -1 30 6 12 10 15 10 15 0 0 -8 10 -9 32 -5
l32 7 -16 -24 c-16 -25 -16 -26 12 -53 29 -28 30 -28 50 -10 11 10 20 14 21 9
1 -5 2 -20 2 -34 2 -18 10 -26 34 -33 17 -5 46 -25 65 -44 l33 -35 -58 29 -59
28 -19 -24 c-10 -13 -19 -26 -19 -30 0 -4 21 -22 46 -40 25 -18 43 -35 41 -37
-2 -2 -23 3 -47 11 -23 8 -48 15 -55 15 -10 0 -35 -40 -35 -55 0 -3 26 -18 57
-35 l58 -30 -66 6 -66 6 -7 -28 c-9 -33 9 -50 61 -60 56 -11 47 -24 -16 -24
-48 0 -61 -3 -61 -15 0 -13 24 -15 157 -15 l156 0 -21 23 c-30 32 -28 69 9
136 49 94 85 131 124 131 29 0 40 -8 78 -58 86 -111 120 -172 113 -203 l-5
-29 145 0 c140 0 144 1 134 19 -6 12 -7 29 -1 43 12 33 97 157 134 195 34 37
75 43 101 17 46 -45 115 -170 116 -207 0 -10 -12 -29 -26 -42 l-27 -25 161 0
c148 0 162 1 159 18 -1 9 3 19 8 22 6 3 11 -5 13 -17 3 -20 9 -23 48 -23 39 0
44 3 50 27 l7 26 19 -24 20 -23 36 21 c37 22 41 31 26 67 -6 15 -4 18 7 14 8
-3 21 -9 30 -13 12 -4 23 4 39 32 l22 37 -21 17 c-26 21 -27 29 -2 29 27 0 43
24 39 62 -2 28 -7 34 -30 36 -33 4 -35 13 -9 36 19 17 19 20 3 53 -15 32 -20
34 -50 29 -27 -4 -33 -2 -28 9 3 8 9 21 12 29 4 10 -7 21 -34 35 -39 20 -40
20 -57 0 -18 -19 -19 -18 -47 37 -35 67 -28 82 27 59 43 -17 41 -19 76 49 l21
39 -23 18 c-13 10 -28 19 -32 19 -5 0 -7 8 -5 18 2 12 16 19 43 22 38 5 40 7
43 44 6 70 -3 86 -48 86 -49 0 -52 16 -9 51 l32 26 -28 46 c-28 48 -42 55 -76
36 -42 -22 -48 -5 -24 63 45 126 69 157 53 66 -8 -45 -7 -54 9 -65 34 -26 57
-12 73 45 8 28 17 52 20 52 3 0 5 -26 5 -57 l0 -58 36 -3 c34 -3 37 -1 43 29
3 17 6 42 6 55 0 46 18 23 25 -32 l7 -55 36 3 37 3 5 60 5 60 18 -59 c18 -57
19 -58 50 -52 17 3 32 8 35 11 2 2 0 29 -5 59 -11 60 -4 73 16 29 29 -65 38
-73 71 -62 35 13 35 11 14 73 -9 26 -14 49 -12 52 3 2 19 -16 37 -41 18 -25
36 -45 41 -45 4 0 18 9 31 19 l24 20 -26 50 c-15 28 -24 51 -21 51 3 0 23 -17
44 -37 34 -33 40 -35 63 -25 33 15 32 36 -5 82 -41 52 -38 57 12 21 23 -17 52
-31 64 -31 13 0 27 -7 32 -16 7 -13 13 -14 30 -5 31 16 33 14 27 -21 -6 -30
-3 -35 30 -53 l37 -19 18 24 c20 27 19 28 36 -27 2 -8 19 -13 40 -13 31 0 37
4 47 30 l11 30 22 -21 21 -20 37 22 c23 13 35 27 32 35 -22 53 -25 50 28 28 8
-3 22 9 35 32 l22 37 -20 21 -21 22 30 11 c26 10 30 16 30 47 0 24 -5 38 -15
41 -51 16 -49 14 -25 40 18 19 21 28 12 37 -8 8 -6 19 11 42 l22 31 5 -95 c5
-89 6 -95 28 -98 12 -2 22 -5 22 -7 0 -3 -20 -39 -45 -81 -25 -41 -45 -79 -45
-83 0 -5 25 -25 55 -45 50 -33 55 -39 49 -64 -4 -15 -8 -28 -9 -29 -1 -2 -33
-6 -71 -10 l-69 -8 -3 -83 c-2 -53 1 -89 9 -98 7 -9 32 -14 70 -14 55 0 60 -2
69 -26 14 -37 15 -36 -41 -74 -28 -18 -53 -38 -55 -42 -8 -12 79 -158 93 -158
7 0 37 11 67 24 l54 24 22 -23 21 -23 -25 -51 c-14 -27 -26 -56 -26 -63 1 -12
139 -98 157 -98 5 0 25 25 47 56 25 37 43 53 53 50 8 -3 21 -6 28 -6 10 0 16
-21 21 -70 l7 -71 96 3 96 3 7 64 c8 72 5 66 39 74 23 6 30 0 64 -48 20 -30
40 -55 44 -55 3 0 41 20 85 45 43 25 80 45 82 45 2 0 4 -10 4 -22 0 -37 48
-203 80 -282 l31 -73 157 39 c173 43 327 59 398 39 55 -15 191 -143 205 -194
l10 -37 782 0 782 0 72 32 c60 26 75 29 88 18 9 -7 13 -21 10 -31 -6 -18 8
-19 375 -19 367 0 381 1 375 19 -3 10 1 23 9 30 20 17 82 -3 99 -30 11 -18 36
-19 816 -19 l804 0 -104 108 c-169 174 -234 294 -208 381 17 56 69 76 194 76
76 0 99 -5 147 -27 79 -37 120 -70 162 -131 72 -106 84 -239 32 -353 l-25 -54
211 0 c196 0 210 1 203 17 -25 66 -1 129 57 151 33 13 41 12 75 -4 50 -25 70
-78 48 -130 l-14 -34 70 0 c39 0 79 5 89 10 13 7 21 7 25 0 3 -6 50 -10 104
-10 l99 0 -2 64 c0 35 2 68 6 72 4 3 19 -1 33 -10 29 -19 35 -75 10 -96 -8 -7
-15 -16 -15 -21 0 -5 75 -9 167 -9 l166 0 -21 23 c-31 33 -29 80 4 102 36 23
46 6 40 -68 l-4 -58 101 3 102 3 3 64 c3 70 -3 81 -50 81 -35 0 -36 13 -3 34
32 21 31 38 -1 94 -27 46 -39 49 -98 26 -16 -6 -18 -4 -11 12 24 57 19 70 -35
101 l-52 30 61 60 c34 34 61 66 61 72 0 6 5 11 10 11 6 0 16 12 23 27 6 15 20
36 30 45 9 10 17 24 17 32 0 7 6 19 14 25 11 9 8 -15 -10 -101 -13 -62 -26
-118 -29 -125 -8 -24 270 -105 395 -115 l44 -3 14 50 c35 131 87 286 114 344
32 66 110 161 134 161 7 0 50 12 94 26 l82 25 69 -21 c46 -14 74 -28 84 -44 9
-13 28 -26 43 -30 15 -3 36 -13 46 -21 19 -14 18 -16 -19 -48 l-39 -34 37 -66
c21 -36 42 -69 47 -72 5 -3 29 5 54 17 62 30 75 17 45 -45 -19 -38 -20 -48
-10 -61 16 -19 114 -76 130 -76 6 0 23 18 37 40 36 54 51 51 59 -12 4 -29 13
-56 19 -60 18 -13 141 -9 154 4 7 7 12 34 12 60 0 41 3 48 20 48 11 0 20 -3
20 -7 0 -5 9 -19 20 -33 l20 -25 0 168 0 168 -37 -29 c-21 -16 -53 -35 -72
-41 -39 -13 -101 -15 -101 -3 0 4 18 26 41 47 48 47 129 149 129 164 0 5 -10
18 -22 28 -13 10 -61 58 -108 106 -95 98 -95 107 -2 107 57 0 101 -18 145 -58
l27 -26 -2 304 -3 303 -32 11 c-17 6 -34 14 -38 17 -3 4 12 26 34 50 l41 42 0
228 0 228 -40 43 c-22 24 -40 46 -40 49 0 3 18 11 40 18 l41 12 -4 387 c-2
248 -8 408 -16 447 -9 47 -9 73 1 125 7 39 13 176 15 343 l4 278 -28 -15 c-15
-8 -46 -31 -68 -51 -21 -20 -47 -41 -57 -46 -10 -5 -18 -13 -18 -18 0 -4 -18
-28 -41 -52 -23 -24 -45 -53 -49 -64 -5 -13 -17 -20 -38 -21 -28 -1 -30 0 -19
17 10 16 7 24 -21 51 -29 29 -34 31 -53 20 -19 -12 -20 -11 -14 7 4 14 0 23
-14 30 -20 11 -19 12 5 38 30 32 31 56 2 76 -22 15 -22 16 12 10 32 -4 37 -2
48 21 18 40 15 54 -15 70 l-28 15 36 1 c39 0 49 12 49 56 0 17 -9 28 -32 38
l-33 14 36 1 c32 1 49 14 49 37 0 2 -77 4 -172 4 l-172 0 27 -28 c15 -15 27
-34 27 -41 0 -21 -59 -132 -92 -174 -25 -32 -36 -38 -62 -35 -25 2 -41 16 -83
72 -78 104 -106 161 -93 186 11 20 8 20 -144 20 l-155 0 5 -28 c4 -21 -5 -44
-44 -102 -127 -196 -162 -198 -257 -15 -36 68 -36 98 -4 118 11 7 19 15 19 19
0 5 -101 8 -225 8 -203 0 -225 -2 -225 -17 0 -14 -2 -14 -20 2 -20 18 -22 18
-58 -3 -27 -16 -37 -28 -37 -46 1 -20 -4 -24 -24 -23 -20 2 -30 -6 -46 -35
-17 -32 -18 -41 -7 -59 12 -18 11 -21 -7 -26 -18 -4 -21 -13 -21 -55 0 -41 3
-51 20 -55 20 -5 28 -23 10 -23 -16 0 -12 -39 7 -72 14 -23 24 -29 45 -26 24
4 26 2 21 -23 -5 -24 0 -30 37 -49 38 -20 44 -20 58 -6 14 13 18 10 39 -30 14
-25 22 -48 20 -51 -3 -2 -19 3 -36 11 -16 9 -34 16 -40 16 -5 0 -24 -25 -42
-56 l-32 -57 32 -26 c17 -14 31 -29 31 -33 0 -4 -17 -8 -37 -10 l-38 -3 -5
-55 -5 -55 -14 33 c-7 18 -17 35 -21 37 -5 3 -72 -11 -151 -30 -225 -55 -329
-64 -424 -34 -44 13 -170 145 -185 193 -20 63 -6 257 29 415 24 104 28 137 18
143 -26 17 -196 68 -272 82 -168 31 -153 33 -165 -16 -23 -87 -62 -215 -87
-283 -28 -76 -82 -175 -96 -175 -5 0 -37 16 -71 35 -35 19 -67 35 -73 35 -5 0
-27 -24 -47 -54 -32 -47 -41 -54 -59 -47 -13 5 -23 18 -25 32 -1 13 -5 43 -8
67 l-5 42 -104 0 -105 0 -6 -40 c-4 -22 -9 -40 -13 -40 -3 0 -55 45 -116 99
l-110 99 -25 -18 c-58 -42 -168 -151 -227 -225 l-63 -79 47 -48 48 -49 -28
-48 c-15 -27 -27 -56 -27 -65 0 -9 23 -31 50 -48 41 -27 50 -38 48 -58 -3 -23
-7 -25 -63 -28 -72 -4 -85 -13 -85 -62 0 -31 -4 -38 -23 -42 -20 -4 -23 -1
-19 23 4 24 -2 30 -38 49 -40 20 -43 21 -61 4 -18 -16 -19 -16 -19 3 0 23 -21
32 -70 28 -32 -3 -54 -21 -44 -37 3 -4 0 -8 -5 -8 -6 0 -11 4 -11 9 0 21 -34
19 -71 -5 -30 -19 -39 -29 -34 -44 5 -14 0 -19 -20 -22 -18 -2 -33 -15 -47
-40 -21 -36 -21 -38 -3 -58 18 -19 18 -20 -2 -20 -24 0 -33 -18 -33 -66 0 -27
5 -37 25 -46 22 -10 23 -12 9 -23 -31 -22 21 -111 58 -99 17 5 19 3 14 -14
-12 -36 77 -89 99 -59 9 13 13 11 27 -13 15 -27 15 -28 -9 -39 -28 -13 -28
-35 -2 -98 7 -18 10 -35 6 -39 -3 -4 -28 2 -54 14 -33 14 -52 17 -60 10 -18
-14 -73 -115 -73 -133 0 -8 18 -27 40 -41 59 -39 50 -64 -24 -64 -47 0 -56
-15 -56 -91 0 -80 13 -99 70 -99 57 0 60 -18 9 -61 l-44 -38 35 -67 c19 -36
41 -69 49 -72 7 -3 33 5 57 16 54 26 61 17 38 -48 -14 -39 -15 -53 -6 -62 10
-10 -1 -18 -48 -39 -33 -15 -60 -34 -60 -42 0 -8 7 -33 15 -56 14 -41 14 -42
-10 -53 -21 -9 -29 -7 -60 21 -20 17 -40 31 -45 31 -6 0 -28 -16 -50 -36 l-40
-36 -33 25 c-19 14 -70 60 -114 101 -45 42 -84 76 -88 76 -4 0 -38 -25 -76
-55 -64 -53 -132 -126 -209 -223 l-34 -43 101 -102 c175 -178 253 -295 253
-380 0 -48 -32 -97 -64 -97 -19 0 -25 7 -30 37 -3 21 -6 50 -6 65 0 37 -25 48
-110 48 -94 0 -110 -9 -110 -63 0 -65 -9 -87 -35 -87 -16 0 -34 15 -59 50 -20
28 -44 50 -54 50 -13 0 -24 21 -45 90 -15 49 -38 114 -51 144 l-24 54 -158
-39 c-181 -45 -316 -59 -390 -40 -63 16 -180 123 -208 191 -25 62 -17 231 19
395 14 66 28 132 31 146 5 24 1 27 -88 57 -90 31 -273 72 -323 72 -20 0 -26
-7 -35 -42 -27 -108 -95 -309 -122 -363 -32 -62 -68 -111 -99 -133 -24 -17
-182 -62 -217 -62 -61 1 -184 69 -302 169 -31 26 -33 31 -22 55 11 24 9 27
-32 56 -50 33 -53 65 -9 76 21 6 35 -4 87 -55 l63 -62 34 27 c96 77 279 275
279 301 0 4 -39 47 -86 93 -143 141 -231 260 -254 341 -7 23 -2 33 36 70 24
24 44 48 44 54 0 6 -11 22 -25 35 -25 24 -32 63 -16 89 7 11 16 11 57 -3 26
-9 52 -16 56 -16 12 0 58 105 58 130 0 24 28 37 220 100 134 45 145 50 143 72
-6 59 -4 148 4 197 7 48 11 55 36 62 25 7 31 3 65 -46 20 -30 41 -54 46 -55
19 0 156 85 156 97 0 8 -12 37 -26 64 l-25 51 21 23 22 23 61 -28 c34 -16 66
-25 70 -21 12 12 87 142 87 152 0 4 -25 25 -55 46 -47 33 -53 41 -48 63 8 34
5 33 81 39 l67 6 0 95 0 95 -69 8 c-38 4 -70 8 -71 10 -1 1 -5 14 -8 28 -6 23
-1 30 48 63 30 20 55 40 55 45 0 12 -79 149 -90 156 -5 3 -36 -8 -68 -24 l-59
-30 -22 23 c-13 14 -19 29 -15 39 6 16 -24 17 -365 17 -351 0 -371 -1 -362
-17 7 -14 5 -23 -10 -39 l-20 -22 -50 21 c-33 14 -49 27 -49 39 0 16 -11 18
-108 18 l-108 0 4 -57 c2 -36 -2 -73 -11 -98 l-15 -40 1 44 2 43 -65 25 c-67
26 -240 67 -321 77 l-47 5 -18 -75 c-21 -90 -37 -85 -32 10 l3 66 -222 0 -222
0 27 -57 c23 -50 27 -71 27 -148 0 -82 -3 -97 -33 -157 -30 -61 -127 -168
-152 -168 -14 0 -154 114 -235 192 l-75 70 -86 -73 c-47 -40 -88 -79 -91 -86
-15 -39 -77 74 -93 168 -6 38 -7 76 -2 94 8 27 16 32 91 55 72 22 81 27 77 45
-3 11 -6 30 -6 43 l0 22 -405 0 c-228 0 -405 -4 -405 -9 0 -14 -54 -21 -62 -8
-5 9 -177 13 -651 15 l-645 3 -13 -68z m294 6 l92 -51 0 -122 c0 -107 3 -127
25 -176 13 -30 44 -78 67 -107 24 -29 43 -55 43 -58 0 -3 -24 -48 -54 -101
l-54 -97 -71 72 c-55 56 -81 92 -115 164 -57 118 -71 179 -70 302 0 89 25 225
41 225 3 0 46 -23 96 -51z m2787 -15 c0 -17 -22 -14 -28 4 -2 7 3 12 12 12 9
0 16 -7 16 -16z m712 1 c0 -5 -5 -11 -11 -13 -6 -2 -11 4 -11 13 0 9 5 15 11
13 6 -2 11 -8 11 -13z m721 -11 c26 -9 47 -18 47 -21 0 -3 -24 -32 -54 -65
l-54 -61 -69 -1 -69 -1 -52 61 c-29 34 -52 64 -52 67 0 6 75 34 110 41 43 8
143 -2 193 -20z m6152 -147 c30 -61 55 -119 55 -129 0 -10 -9 -27 -20 -38 -18
-18 -33 -20 -130 -20 -97 0 -112 2 -130 20 -26 26 -26 26 13 112 102 229 124
235 212 55z m-9301 106 c4 -4 -3 -15 -16 -24 -22 -17 -22 -18 -5 -54 17 -35
20 -37 53 -30 33 6 35 5 25 -14 -6 -11 -11 -30 -11 -43 -1 -21 -2 -22 -14 -5
-17 22 -56 23 -56 0 0 -14 -3 -13 -16 5 -19 28 -44 28 -51 1 -4 -15 -8 -17
-14 -8 -4 7 1 29 12 51 l19 37 -25 17 c-36 23 -33 54 4 54 17 0 33 5 36 10 7
11 48 13 59 3z m8452 -67 c43 -43 46 -90 9 -134 -61 -73 -175 -33 -175 61 0
48 13 72 48 91 45 25 80 20 118 -18z m-6836 -17 c0 -6 -4 -7 -10 -4 -5 3 -10
11 -10 16 0 6 5 7 10 4 6 -3 10 -11 10 -16z m770 -40 c0 -5 -7 -9 -15 -9 -15
0 -20 12 -9 23 8 8 24 -1 24 -14z m116 -42 c-3 -14 -15 -27 -26 -30 -12 -3
-19 -2 -17 1 2 4 10 22 17 39 16 37 36 29 26 -10z m258 -15 l59 -49 1 -71 1
-72 -63 -52 c-71 -58 -72 -57 -97 26 -19 64 -19 129 1 197 18 60 22 69 32 69
4 0 34 -22 66 -48z m611 -3 c10 -29 18 -80 18 -114 0 -62 -28 -175 -43 -175
-5 0 -35 22 -68 50 l-60 50 2 71 1 71 55 49 c30 26 60 49 67 49 6 0 19 -23 28
-51z m-2875 -8 c0 -12 -148 -64 -165 -57 -8 3 -17 0 -21 -6 -9 -15 -25 27 -18
46 3 8 12 12 19 10 7 -3 16 -1 20 5 7 13 165 15 165 2z m1170 0 c0 -5 7 -17
16 -26 9 -9 15 -17 13 -19 -7 -6 -109 36 -109 45 0 5 18 9 40 9 22 0 40 -4 40
-9z m8135 -39 c-3 -3 -11 0 -18 7 -9 10 -8 11 6 5 10 -3 15 -9 12 -12z m-6734
-20 c15 -13 22 -30 22 -52 0 -63 -73 -92 -120 -48 -66 61 27 156 98 100z
m-2556 -67 c-34 -28 -46 -30 -63 -13 -8 8 -15 8 -28 -3 -15 -12 -17 -12 -12 1
5 16 67 38 108 39 l25 0 -30 -24z m1152 3 l43 -13 -23 -28 -22 -27 -57 37
c-32 21 -58 42 -58 47 0 10 55 2 117 -16z m7039 0 c-9 -12 -16 -33 -16 -46 0
-13 -4 -20 -10 -17 -18 11 -10 52 13 68 30 21 31 21 13 -5z m-6348 -64 c-2 -2
-21 3 -41 10 l-37 13 37 24 38 24 3 -33 c2 -19 2 -36 0 -38z m-112 -21 l-15
-28 -1 27 c0 14 6 28 13 31 19 7 20 1 3 -30z m7576 0 c7 -9 9 -14 3 -11 -5 2
-25 11 -42 18 -18 8 -33 18 -33 22 0 11 58 -12 72 -29z m-9544 15 c18 -18 15
-46 -7 -57 -23 -13 -31 -5 -31 29 0 39 15 51 38 28z m312 -17 c0 -15 -20 -24
-52 -25 -15 -1 -28 0 -28 1 0 1 12 9 28 17 31 18 52 20 52 7z m961 -10 c44
-20 44 -20 -5 -35 -8 -3 -23 6 -35 18 -38 41 -26 46 40 17z m950 -13 c18 -27
8 -48 -36 -78 -49 -34 -94 -34 -79 -2 4 10 12 37 18 60 11 44 11 44 50 39 21
-3 43 -11 47 -19z m6393 -13 c-4 -8 -11 -15 -16 -15 -6 0 -5 6 2 15 7 8 14 15
16 15 2 0 1 -7 -2 -15z m100 -53 c-6 -31 6 -45 45 -55 29 -7 51 8 51 34 0 11
5 19 11 19 6 0 9 -9 6 -20 -8 -31 14 -52 53 -48 29 3 35 8 44 38 l10 35 5 -35
c5 -31 10 -35 39 -38 41 -4 62 12 62 47 1 25 1 25 15 -6 8 -18 19 -33 25 -33
5 0 10 -7 10 -16 0 -9 9 -18 19 -21 19 -5 19 -5 0 -24 -10 -10 -30 -19 -43
-19 -33 0 -37 -9 -45 -93 l-7 -72 -23 78 c-23 75 -25 77 -56 77 -50 0 -58 -18
-46 -97 6 -37 9 -69 7 -71 -2 -2 -19 24 -37 58 -18 34 -39 64 -46 67 -19 7
-73 -17 -73 -32 0 -7 11 -44 25 -81 l25 -69 -44 50 c-28 31 -41 54 -35 60 13
13 11 109 -3 123 -7 7 -24 12 -39 12 -40 0 -43 14 -8 39 22 17 29 29 25 44 -4
18 17 77 29 77 2 0 2 -13 -1 -28z m1184 2 c4 -27 -23 -38 -43 -18 -12 13 -13
19 -4 30 17 20 43 13 47 -12z m-9524 -35 c-3 -5 -17 -9 -31 -9 -25 0 -26 0 -8
20 14 15 21 17 31 9 8 -6 11 -15 8 -20z m2492 -35 c29 -33 53 -61 54 -65 1
-16 -111 -43 -177 -42 -71 1 -177 28 -171 43 2 5 25 35 51 67 l49 58 71 -1 71
-1 52 -59z m6592 54 c7 -7 12 -21 12 -33 0 -28 -19 -45 -50 -45 -31 0 -50 17
-50 45 0 28 19 45 50 45 14 0 31 -5 38 -12z m152 -33 c0 -11 -5 -27 -10 -35
-7 -11 -10 -1 -10 35 0 36 3 46 10 35 5 -8 10 -24 10 -35z m-1236 29 c14 -5
14 -8 -1 -30 -21 -33 -81 -33 -112 0 -17 18 -19 25 -9 29 18 8 103 8 122 1z
m873 -56 c-3 -22 -4 -21 -11 4 -5 16 -5 36 0 45 7 16 8 15 11 -4 3 -13 3 -33
0 -45z m-8788 -32 c9 -11 8 -23 -4 -51 -21 -51 -19 -64 11 -77 24 -11 29 -10
48 15 l22 27 22 -23 c12 -13 22 -31 22 -39 0 -9 8 -19 18 -22 13 -4 18 -16 18
-41 0 -25 -4 -34 -13 -30 -7 3 -19 7 -26 10 -7 3 -24 -6 -37 -20 -21 -22 -22
-29 -12 -45 17 -28 15 -33 -12 -26 -14 3 -28 2 -31 -4 -4 -7 -13 -6 -27 1 -19
10 -20 12 -5 21 22 12 22 34 0 48 -13 8 -14 13 -5 16 20 9 14 44 -10 53 -14 5
-17 10 -10 15 16 10 15 45 -2 52 -8 3 -11 15 -8 30 3 19 0 26 -17 31 -21 5
-21 6 7 38 31 38 35 40 51 21z m-228 -22 c17 -21 0 -49 -31 -49 -31 0 -48 28
-31 49 8 9 21 16 31 16 10 0 23 -7 31 -16z m7945 -35 c4 -7 8 -27 9 -45 1 -25
-4 -37 -26 -53 l-27 -20 -6 22 c-7 28 -7 76 0 104 5 18 10 21 25 13 10 -6 21
-15 25 -21z m335 -19 c6 -88 -5 -108 -43 -73 -25 22 -23 71 4 100 26 28 36 21
39 -27z m-6141 -5 l23 -24 -27 -11 c-40 -15 -54 -12 -66 11 -7 11 -10 22 -8
23 8 7 44 25 49 26 3 0 16 -11 29 -25z m6950 5 c8 -5 12 -11 9 -14 -3 -3 -14
1 -25 9 -21 16 -8 20 16 5z m210 -10 c-27 -21 -60 -32 -60 -21 0 8 59 39 75
40 6 0 -1 -8 -15 -19z m-7420 -15 c13 -14 19 -25 14 -25 -8 1 -50 50 -41 50 2
0 14 -11 27 -25z m6227 9 c3 -8 1 -20 -6 -27 -14 -14 -47 15 -37 32 10 16 36
13 43 -5z m817 -48 c-12 -59 -23 -63 -24 -9 0 43 3 51 16 46 11 -4 13 -13 8
-37z m-2068 -38 c92 -85 168 -226 193 -360 7 -38 5 -48 -7 -53 -8 -3 -23 1
-32 10 -10 9 -24 13 -35 9 -14 -6 -16 -3 -11 13 12 38 -77 90 -99 59 -11 -14
-13 -13 -23 9 -6 14 -20 25 -30 25 -10 0 -26 14 -36 32 -11 17 -35 48 -53 69
l-34 38 53 96 c29 52 56 95 61 95 4 0 28 -19 53 -42z m914 -8 c0 -9 -50 -43
-55 -38 -2 2 -6 15 -10 29 -6 24 -4 25 29 21 20 -2 36 -8 36 -12z m1815 -15
c0 -22 -31 -33 -47 -17 -17 17 -1 44 24 40 15 -2 23 -10 23 -23z m-215 -30 c0
-8 -5 -15 -10 -15 -6 0 -36 -20 -67 -45 -31 -24 -59 -43 -61 -41 -2 2 9 22 23
44 18 27 37 43 56 47 16 4 31 11 34 16 9 14 25 11 25 -6z m-1228 -23 c12 -12
18 -25 14 -29 -9 -10 -122 -11 -131 -1 -4 3 1 17 9 31 21 31 76 31 108 -1z
m-2537 -55 c14 -47 14 -56 -2 -102 l-17 -50 -14 63 c-14 65 -9 157 8 147 5 -3
16 -29 25 -58z m-6213 -18 c59 -29 165 -110 281 -214 95 -85 98 -87 117 -70
35 32 21 6 -22 -41 -106 -115 -251 -165 -414 -143 -111 15 -214 77 -299 180
-35 41 -76 139 -69 162 10 33 95 117 118 118 11 0 53 10 91 23 79 25 124 22
197 -15z m2249 18 c46 -30 82 -101 74 -147 -12 -62 -55 -122 -55 -75 0 24 -38
94 -82 152 -29 38 -38 58 -33 73 9 27 52 26 96 -3z m6810 -9 c11 -21 11 -22
-4 -9 -10 7 -17 17 -17 22 0 15 9 10 21 -13z m-7997 -3 c6 -18 -29 -39 -51
-31 -12 5 -11 10 8 26 29 24 35 24 43 5z m7362 -17 c21 6 40 10 41 8 2 -2 -3
-19 -11 -37 -7 -19 -19 -45 -24 -59 -10 -24 -11 -24 -11 8 -1 27 -6 35 -31 43
-16 6 -30 17 -30 24 0 7 -3 22 -7 32 -4 13 0 11 14 -7 19 -22 23 -23 59 -12z
m-7726 -7 c0 -24 -26 -45 -46 -37 -13 5 -13 10 6 36 22 32 40 32 40 1z m9300
-31 c0 -5 -19 -19 -42 -31 l-43 -21 34 35 c31 33 51 40 51 17z m-4314 -25 c46
-19 70 -72 54 -120 -15 -44 -41 -66 -87 -72 -32 -4 -45 0 -71 22 -59 50 -48
140 21 170 40 18 41 18 83 0z m3290 -6 c19 -22 19 -22 -3 -10 -13 6 -23 16
-23 21 0 15 5 12 26 -11z m646 -17 c35 -17 74 -42 86 -55 21 -22 19 -22 -76
10 -54 18 -139 40 -190 50 -112 21 -99 34 29 30 73 -3 96 -8 151 -35z m-8742
7 c0 -5 -7 -9 -15 -9 -8 0 -15 7 -15 15 0 9 6 12 15 9 8 -4 15 -10 15 -15z
m7736 -46 c-3 -3 -12 0 -21 7 -14 12 -14 15 2 33 18 19 18 19 21 -8 2 -15 1
-29 -2 -32z m260 -24 c30 -17 54 -33 52 -35 -2 -2 -28 3 -58 11 -86 23 -106
20 -119 -16 -14 -42 -7 -50 76 -79 l68 -25 -44 -3 c-36 -3 -48 1 -70 22 l-27
25 -32 -19 -33 -20 22 30 23 30 -24 25 c-29 31 -47 31 -78 3 -14 -13 -22 -17
-18 -8 3 8 9 23 12 32 5 13 21 18 73 20 65 3 66 3 69 33 5 56 12 63 33 33 11
-15 45 -41 75 -59z m-7888 21 c4 -47 -12 -75 -28 -50 -11 17 -13 61 -4 85 11
28 29 10 32 -35z m8271 -95 c-38 -135 -123 -327 -144 -329 -20 -2 -37 78 -33
159 5 94 28 153 84 215 35 39 123 104 130 97 2 -2 -15 -66 -37 -142z m-3257
109 c22 -14 4 -45 -41 -74 -28 -17 -52 -37 -54 -43 -3 -9 -8 -9 -17 0 -9 8 -7
12 9 18 18 5 21 14 21 62 l0 55 37 -7 c21 -4 41 -9 45 -11z m-4664 -48 c3 -22
0 -27 -14 -24 -10 1 -17 6 -16 11 1 4 2 16 2 28 0 31 24 18 28 -15z m7196 19
c-4 -8 -8 -15 -10 -15 -2 0 -4 7 -4 15 0 8 4 15 10 15 5 0 7 -7 4 -15z m1744
-28 c2 -9 -4 -20 -12 -23 -21 -8 -46 13 -39 32 8 20 47 13 51 -9z m-238 3 c0
-5 -6 -10 -14 -10 -8 0 -23 -3 -33 -6 -16 -5 -16 -4 1 10 22 18 46 21 46 6z
m-9161 -16 c5 -5 -14 -20 -34 -27 -6 -2 -3 -19 8 -41 27 -57 23 -80 -19 -99
-39 -19 -54 -15 -54 12 0 9 -6 23 -12 30 -7 7 -8 12 -3 11 25 -5 35 2 35 25 0
14 -6 25 -12 26 -7 0 -3 4 10 9 24 10 29 39 11 57 -9 9 -2 11 27 7 21 -3 40
-7 43 -10z m8917 -71 c26 -53 29 -67 29 -158 0 -90 -3 -105 -28 -153 -37 -71
-107 -148 -119 -130 -21 34 -7 185 39 395 29 138 32 139 79 46z m-10866 47
c22 -11 55 -34 74 -50 31 -28 33 -33 26 -67 -14 -58 -59 -72 -99 -29 -13 14
-39 32 -58 41 -24 11 -32 21 -29 33 3 9 8 34 12 55 7 43 18 45 74 17z m7655
-23 c-3 -18 -7 -50 -9 -72 l-4 -40 -58 1 c-61 1 -134 19 -134 34 0 4 20 32 45
61 l45 54 60 -3 61 -4 -6 -31z m-8438 1 c27 -13 49 -23 51 -24 2 -1 -4 -14
-13 -27 -16 -25 -17 -25 -61 -10 -50 17 -72 46 -53 69 15 18 20 18 76 -8z
m3143 -27 c0 -13 -50 -51 -66 -51 -22 0 -16 26 9 43 25 18 57 22 57 8z m4653
-51 c15 -28 27 -52 27 -55 0 -3 -31 -5 -70 -5 -60 0 -71 3 -80 20 -10 19 -9
21 17 18 23 -3 31 3 48 34 11 21 22 38 25 38 3 0 17 -23 33 -50z m4157 25 c11
-13 6 -15 -36 -14 l-49 1 30 13 c38 18 40 18 55 0z m-9496 -11 c9 -8 16 -19
16 -24 0 -9 -28 -40 -36 -40 -17 0 -44 23 -44 38 0 38 37 53 64 26z m814 -33
c3 -39 1 -43 -12 -32 -8 7 -12 19 -9 27 3 8 -3 24 -13 35 -19 21 -19 21 6 18
22 -4 25 -10 28 -48z m6914 22 c10 -9 17 -22 16 -27 -2 -6 -49 -56 -105 -110
l-103 -99 -41 88 c-42 90 -50 128 -31 147 32 32 229 32 264 1z m-8813 -39
c-17 -21 -21 -11 -8 22 10 23 13 25 16 11 3 -10 -1 -25 -8 -33z m-1579 -24
c14 -22 30 -40 37 -40 19 0 123 -53 123 -63 0 -4 -15 -14 -34 -22 -30 -13 -41
-12 -91 1 -32 8 -70 22 -85 30 -25 15 -26 20 -22 68 7 78 34 88 72 26z m9557
-53 c-7 -49 -9 -50 -41 -36 -27 13 -28 21 -10 109 l6 25 25 -29 c21 -24 24
-37 20 -69z m-5017 68 c23 -12 30 -23 30 -44 0 -23 -11 -37 -56 -71 l-55 -43
-65 34 c-35 19 -64 37 -64 40 0 4 19 14 43 23 23 9 58 30 77 46 40 34 50 36
90 15z m-1047 -67 c4 -18 9 -42 12 -54 5 -16 -2 -26 -32 -47 -22 -15 -42 -27
-45 -27 -3 0 6 36 20 80 14 44 29 80 33 80 3 0 9 -15 12 -32z m4332 10 c20 9
25 9 25 -3 0 -16 -43 -31 -59 -20 -6 3 -16 16 -22 28 -12 22 -12 22 10 3 17
-16 25 -17 46 -8z m4421 14 c6 -4 13 -15 17 -25 4 -9 13 -20 21 -23 8 -3 35
-25 61 -48 35 -33 46 -49 43 -67 -6 -45 -41 -36 -79 20 -19 28 -39 51 -46 51
-6 0 -13 10 -15 23 -3 19 -13 24 -83 38 l-80 16 55 10 c70 13 92 15 106 5z
m-8960 -60 c-15 -15 -16 -13 -16 23 0 39 0 39 16 16 15 -21 15 -24 0 -39z
m6696 6 c50 -53 138 -191 138 -216 0 -31 -27 -38 -143 -34 -82 3 -99 6 -107
22 -17 31 -14 81 9 164 29 107 50 120 103 64z m658 1 c15 -17 41 -54 56 -83
31 -57 34 -59 -78 34 -60 49 -66 56 -51 68 26 19 42 15 73 -19z m-9458 -45
c41 -13 46 -19 52 -52 9 -57 7 -112 -7 -167 -11 -41 -17 -50 -38 -53 -13 -1
-39 7 -57 18 -31 19 -32 23 -25 58 10 46 10 107 1 149 -5 23 -3 37 8 48 19 18
11 18 66 -1z m633 -49 c0 -27 -3 -30 -30 -30 -21 0 -31 5 -33 18 -6 33 6 49
35 45 24 -3 28 -8 28 -33z m626 19 c17 -21 0 -49 -31 -49 -31 0 -48 28 -31 49
8 9 21 16 31 16 10 0 23 -7 31 -16z m6036 -34 c3 -43 2 -44 -11 -20 -7 14 -17
36 -21 48 -6 20 -4 23 12 20 14 -2 19 -14 20 -48z m-6962 11 c-7 -22 16 -44
39 -35 11 4 15 2 11 -8 -7 -18 20 -42 39 -35 9 4 16 -4 20 -26 8 -39 -9 -58
-28 -32 -12 16 -19 18 -43 10 -15 -6 -28 -17 -28 -25 0 -21 -16 -30 -42 -23
-13 3 -34 -2 -48 -11 -38 -25 -65 -21 -65 9 0 22 4 25 38 25 76 0 82 6 82 71
0 33 6 68 12 79 16 25 21 26 13 1z m10637 7 c-8 -8 -20 -8 -44 -1 l-33 11 45
1 c33 1 41 -2 32 -11z m-11233 -48 c1 -13 0 -13 -9 0 -5 8 -9 24 -9 35 l0 20
9 -20 c5 -11 9 -27 9 -35z m1211 -21 c15 -27 -5 -51 -39 -47 -29 3 -39 31 -21
53 18 21 48 18 60 -6z m1490 -37 c0 -5 -16 -13 -35 -19 -40 -13 -43 -6 -14 31
18 22 22 24 35 12 8 -8 14 -19 14 -24z m8477 -2 c12 0 38 -38 31 -45 -2 -3
-24 10 -48 26 -34 23 -39 30 -20 25 14 -3 30 -6 37 -6z m-10355 -65 c6 -29 -7
-34 -15 -6 -4 17 0 31 9 31 1 0 4 -11 6 -25z m692 -22 c8 3 43 -15 77 -41 l64
-47 -92 -5 c-82 -5 -93 -7 -111 -30 -11 -14 -35 -34 -52 -44 l-33 -19 32 46
c35 51 37 60 17 76 -7 6 -11 22 -8 36 4 23 6 24 17 9 10 -14 15 -14 34 -4 14
7 20 17 17 27 -5 13 -4 14 9 3 8 -7 21 -10 29 -7z m-1614 -23 c0 -5 -5 -10
-11 -10 -5 0 -7 5 -4 10 3 6 8 10 11 10 2 0 4 -4 4 -10z m1459 -13 c8 -10 1
-23 -30 -53 l-41 -39 18 34 c11 18 23 42 29 52 12 23 10 22 24 6z m7976 -35
c-6 -7 -35 18 -35 31 0 5 9 2 20 -8 11 -10 18 -20 15 -23z m-2471 -21 c32 -89
23 -87 182 -47 77 20 153 36 167 36 26 0 27 -1 27 -62 0 -64 -23 -131 -51
-155 -8 -6 -30 -13 -49 -15 -25 -2 -36 -8 -39 -23 -5 -28 -19 -35 -79 -35
-108 0 -199 83 -218 198 -6 40 19 152 34 152 5 0 16 -22 26 -49z m-4576 -1
c40 -9 61 -23 129 -89 72 -69 82 -83 92 -130 20 -96 15 -143 -23 -192 -38 -50
-88 -87 -161 -121 -41 -18 -68 -23 -145 -23 -88 0 -101 3 -162 33 -135 66
-215 184 -225 330 -8 121 -6 123 134 156 195 45 277 54 361 36z m6905 -21 c11
-18 -1 -57 -28 -92 -12 -17 -16 -15 -57 29 -80 87 -80 85 3 82 53 -2 75 -7 82
-19z m-8138 -44 c14 -13 25 -32 25 -42 0 -10 -24 -68 -54 -130 -61 -126 -90
-156 -129 -131 -30 21 -55 67 -40 76 12 7 -4 123 -27 202 -5 19 -10 38 -10 42
0 5 47 8 105 8 99 0 107 -2 130 -25z m-988 -61 c13 -21 23 -44 23 -51 0 -15
-93 -50 -145 -54 -40 -4 -40 -4 -43 33 -2 21 1 45 6 54 9 16 109 63 127 60 6
-2 20 -20 32 -42z m9369 -106 c30 -61 54 -121 54 -134 0 -41 -34 -54 -145 -54
-74 0 -106 4 -123 15 l-22 16 45 57 44 56 -20 22 -20 22 25 50 c31 62 61 85
88 71 11 -6 44 -60 74 -121z m-7926 107 c0 -5 -56 -35 -66 -35 -4 0 1 9 11 20
16 17 55 28 55 15z m9285 -24 c10 -20 12 -32 4 -36 -13 -9 -15 -6 -24 33 -8
40 0 41 20 3z m-9180 -11 c19 -7 18 -9 -8 -19 -16 -6 -29 -11 -31 -11 -1 0 -2
9 -2 20 0 21 9 24 41 10z m-302 -60 c49 -58 100 -165 93 -195 -8 -33 -29 -42
-127 -54 -166 -21 -229 -10 -229 40 0 19 103 178 145 222 39 41 75 36 118 -13z
m-2355 -37 c37 -20 68 -37 70 -38 6 -4 -21 -65 -30 -65 -19 0 -128 103 -128
121 0 27 13 24 88 -18z m4458 -28 c43 -18 57 -53 51 -130 -5 -69 -23 -109 -68
-154 -50 -50 -87 -65 -159 -66 -54 0 -73 5 -113 28 -52 31 -107 105 -107 143
0 24 60 109 94 134 11 8 59 27 106 42 90 28 135 29 196 3z m5030 -128 c-21
-72 -85 -157 -148 -200 -53 -35 -141 -67 -184 -67 l-23 0 35 103 c38 107 86
196 127 235 14 13 62 34 108 48 45 13 85 26 88 30 13 13 11 -101 -3 -149z
m2294 64 c43 -39 44 -41 26 -56 -29 -22 -39 -19 -60 19 -10 19 -29 45 -42 57
-13 12 -24 29 -24 36 0 19 43 -5 100 -56z m-9975 -24 c30 -53 31 -68 5 -92
-18 -16 -32 -17 -127 -11 -180 11 -210 24 -137 60 38 19 212 85 226 86 4 0 19
-20 33 -43z m-787 -24 c-30 -29 -44 -27 -33 6 4 14 15 21 33 21 l27 0 -27 -27z
m97 -73 c-21 -24 -35 -26 -35 -6 0 8 10 17 23 19 12 2 24 5 26 6 2 0 -4 -8
-14 -19z m8764 -35 c16 -9 13 -28 -3 -22 -7 3 -26 -1 -41 -9 -41 -21 -62 -17
-112 19 l-45 32 78 3 c44 2 83 7 89 13 6 6 12 3 17 -10 3 -10 11 -22 17 -26z
m-7873 0 c18 -28 11 -60 -17 -76 -26 -14 -56 -3 -75 27 -15 22 -15 26 0 49 22
34 69 34 92 0z m743 -29 c-14 -21 -28 -31 -34 -27 -5 5 -28 12 -50 16 l-40 7
70 22 c39 13 72 21 74 20 2 -2 -7 -19 -20 -38z m-2859 24 c0 -5 -2 -10 -4 -10
-3 0 -8 5 -11 10 -3 6 -1 10 4 10 6 0 11 -4 11 -10z m1294 -44 c-6 -16 -24
-23 -24 -8 0 10 22 33 27 28 2 -2 1 -11 -3 -20z m9655 15 c8 -5 11 -16 6 -30
-5 -16 -14 -21 -38 -21 -29 1 -30 2 -14 14 9 7 17 21 17 30 0 18 8 20 29 7z
m1071 7 c0 -2 7 -35 15 -74 11 -53 12 -85 5 -129 -5 -32 -11 -60 -14 -62 -3
-3 -23 5 -45 18 -40 22 -41 24 -41 78 0 31 -3 72 -6 92 -6 32 -3 38 27 57 29
18 59 28 59 20z m-4010 -49 c0 -25 -48 -31 -60 -8 -14 25 -14 26 25 25 25 -1
35 -5 35 -17z m2831 -28 c-5 -9 -11 -23 -14 -31 -3 -8 -6 5 -6 29 -1 37 1 42
14 31 10 -8 12 -18 6 -29z m-10630 19 c21 -12 55 -70 40 -70 -23 0 -43 14 -56
41 -22 42 -19 47 16 29z m1716 -11 c25 -21 13 -56 -54 -154 -79 -114 -107
-139 -147 -129 -47 11 -154 192 -140 236 11 36 49 49 161 58 117 8 159 6 180
-11z m503 6 c117 -9 146 -40 111 -120 -32 -72 -92 -156 -119 -166 -40 -15 -60
-2 -123 84 -127 171 -126 222 6 212 28 -3 84 -7 125 -10z m575 -35 c-3 -5 -11
-10 -16 -10 -6 0 -7 5 -4 10 3 6 11 10 16 10 6 0 7 -4 4 -10z m-243 -9 c-12
-7 -62 -4 -62 5 0 2 17 4 38 4 23 0 32 -3 24 -9z m5998 -6 c0 -6 -73 -106 -74
-102 -1 1 -14 16 -29 33 l-29 32 59 20 c64 22 73 25 73 17z m970 -5 c13 -8 13
-10 -2 -10 -9 0 -20 5 -23 10 -8 13 5 13 25 0z m530 -20 c0 -24 -26 -38 -42
-22 -16 16 -2 42 22 42 13 0 20 -7 20 -20z m2110 -5 c0 -3 -11 -28 -25 -55
-14 -27 -25 -56 -25 -64 0 -9 18 -26 41 -38 40 -23 40 -24 35 -68 -6 -39 -21
-71 -29 -59 -40 56 -61 79 -73 79 -18 0 -18 2 6 95 19 73 41 115 62 115 4 0 8
-2 8 -5z m-10233 -75 c18 -30 47 -88 64 -129 51 -123 32 -145 -133 -145 -100
0 -109 1 -133 24 -21 20 -25 31 -21 55 9 41 103 227 124 243 33 25 64 10 99
-48z m1443 -54 c0 -13 -9 -3 -49 53 -46 64 -38 74 9 11 22 -29 40 -58 40 -64z
m524 99 c10 -28 -14 -60 -28 -37 -7 11 4 52 14 52 4 0 10 -7 14 -15z m-766
-74 c-9 -14 -5 -30 16 -76 25 -55 25 -59 10 -77 -22 -23 -29 -23 -89 6 -35 17
-44 25 -28 25 18 1 26 15 49 84 33 102 35 106 45 78 5 -13 4 -29 -3 -40z
m6607 24 c0 -23 -34 -33 -45 -14 -13 20 1 40 24 37 13 -2 21 -10 21 -23z
m-9700 3 c42 -19 29 -28 -40 -28 -36 0 -65 2 -65 5 0 7 53 34 67 35 7 0 24 -5
38 -12z m7787 -13 c1 -6 -10 -15 -23 -22 -30 -14 -172 -53 -177 -48 -8 8 55
41 117 62 68 23 82 24 83 8z m-5081 -41 c57 -55 43 -146 -28 -179 -64 -31
-128 -1 -153 72 -24 67 47 150 119 139 19 -3 47 -17 62 -32z m6639 21 c0 -8
-2 -15 -4 -15 -2 0 -6 7 -10 15 -3 8 -1 15 4 15 6 0 10 -7 10 -15z m1364 -11
c9 -24 7 -31 -10 -38 -18 -7 -63 23 -64 42 0 19 67 16 74 -4z m-2234 -54 c0
-9 -72 -30 -82 -24 -14 9 -9 46 9 66 16 18 17 18 45 -9 15 -15 28 -30 28 -33z
m3890 50 c5 0 12 -30 15 -66 6 -53 4 -69 -8 -81 -22 -23 -37 -7 -37 39 0 24
-7 49 -16 59 -13 14 -13 20 -2 38 7 12 19 19 26 16 8 -3 17 -5 22 -5z m-8306
-33 c3 -12 6 -37 6 -54 l0 -33 81 0 c46 0 78 -4 75 -9 -4 -5 -2 -21 4 -36 9
-24 8 -26 -7 -20 -35 14 -48 9 -67 -27 l-20 -36 24 -20 23 -19 -31 -6 c-30 -6
-32 -9 -32 -52 0 -40 2 -45 23 -45 25 0 39 -8 32 -20 -3 -5 -145 6 -151 13 -1
1 -5 14 -9 29 -6 24 -1 30 49 64 31 20 56 39 56 42 0 7 -91 162 -95 162 -2 0
-31 -12 -65 -27 l-61 -26 -21 21 c-19 18 -20 24 -8 52 l13 30 34 -20 c19 -11
38 -20 43 -20 4 0 21 20 36 44 30 47 57 52 68 13z m4576 26 c0 -3 -8 -31 -17
-60 -14 -45 -15 -58 -4 -75 7 -11 10 -22 7 -25 -3 -3 -1 -14 5 -25 9 -17 8
-19 -10 -13 -21 6 -37 -14 -50 -64 l-7 -24 -22 23 c-28 30 -28 36 2 44 36 9
38 30 10 102 -15 36 -24 67 -21 71 36 35 107 66 107 46z m-8623 -79 c2 -7 -14
-14 -39 -17 -35 -5 -47 -2 -65 15 -13 12 -23 25 -23 28 0 12 123 -14 127 -26z
m9230 -85 c1 -10 -2 -19 -7 -19 -5 0 -14 -19 -21 -42 l-11 -43 -19 35 c-13 25
-18 57 -19 115 l0 80 38 -53 c21 -30 39 -62 39 -73z m658 15 c23 -92 82 -244
93 -244 4 0 70 16 147 35 77 19 170 38 206 41 l66 7 11 -49 c21 -94 23 -123
12 -188 -15 -95 -54 -171 -125 -241 -67 -68 -117 -97 -204 -120 -272 -70 -544
119 -564 394 -13 189 99 368 278 443 22 9 44 16 49 15 4 -2 18 -43 31 -93z
m-8600 46 c-3 -5 -12 -10 -18 -10 -7 0 -6 4 3 10 19 12 23 12 15 0z m1105 -30
c8 -5 11 -12 7 -16 -4 -4 -15 0 -24 9 -18 18 -8 23 17 7z m1214 -23 c22 -7 41
-18 43 -23 1 -5 -20 -36 -48 -68 l-51 -59 -71 0 -71 1 -52 64 c-59 70 -59 71
26 95 53 15 168 10 224 -10z m5844 4 c19 -11 11 -45 -11 -49 -19 -4 -32 20
-23 43 6 17 15 19 34 6z m-8106 -43 c-12 -12 -25 -18 -29 -14 -4 4 3 16 17 26
32 24 40 16 12 -12z m7438 -18 c-33 -26 -52 -25 -21 0 13 11 28 20 35 20 6 0
0 -9 -14 -20z m191 0 c31 -25 12 -26 -21 0 -14 11 -20 20 -14 20 7 0 22 -9 35
-20z m1819 -6 c11 -12 10 -18 -4 -32 -15 -15 -18 -15 -26 -2 -25 39 2 69 30
34z m-9365 -44 c-15 -30 -26 -36 -38 -23 -8 7 31 53 45 53 5 0 2 -13 -7 -30z
m2952 -37 c59 -79 76 -110 68 -122 -3 -5 -21 -15 -40 -21 -105 -35 -191 94
-119 179 14 17 29 31 33 31 4 0 30 -30 58 -67z m-4587 2 c20 -24 3 -55 -30
-55 -20 0 -31 6 -35 20 -8 25 10 50 35 50 10 0 23 -7 30 -15z m1726 -10 c-15
-61 -26 -78 -41 -65 -12 10 -10 17 12 51 30 45 38 49 29 14z m4260 -88 c133
-158 184 -445 112 -615 l-13 -31 -98 56 c-60 33 -97 60 -94 67 3 7 8 37 12 67
13 106 -27 233 -101 325 l-42 51 30 54 c17 30 41 73 55 97 l24 43 37 -32 c20
-17 56 -54 78 -82z m2534 87 c19 -49 4 -214 -21 -229 -9 -6 -45 10 -70 32 -13
11 -15 22 -8 56 9 45 69 167 82 167 4 0 12 -12 17 -26z m-5028 -195 l-4 -69
-60 -50 c-33 -27 -64 -48 -68 -45 -5 3 -16 28 -25 56 -22 65 -17 197 10 251
l18 36 66 -55 66 -55 -3 -69z m566 33 c5 -63 -19 -185 -39 -198 -6 -3 -38 18
-72 47 l-62 53 1 70 1 69 64 53 64 53 19 -41 c10 -23 21 -71 24 -106z m-3150
42 c-15 -8 -49 -17 -75 -19 l-48 -6 55 20 c69 24 108 27 68 5z m2832 -24 c42
-42 8 -120 -52 -120 -58 0 -91 78 -51 122 22 24 77 24 103 -2z m5840 -16 c11
-12 10 -18 -3 -32 -16 -15 -18 -15 -34 0 -13 14 -14 20 -3 32 7 9 16 16 20 16
4 0 13 -7 20 -16z m1257 0 c3 -8 -1 -22 -9 -30 -12 -12 -17 -12 -33 0 -16 12
-17 16 -6 30 17 20 40 21 48 0z m-6447 -34 c27 17 42 12 30 -9 -16 -30 -13
-38 27 -62 l36 -23 15 22 c19 29 32 28 32 -3 0 -23 3 -25 50 -25 47 0 50 2 50
25 0 14 4 25 10 25 21 0 26 -33 14 -92 -10 -48 -21 -69 -51 -100 -52 -53 -179
-115 -355 -173 -124 -40 -147 -51 -150 -69 -2 -15 -10 -4 -27 37 -24 58 -24
59 -4 78 20 20 20 20 75 -7 31 -15 62 -24 70 -21 13 4 98 139 98 153 0 2 -25
20 -55 40 -59 40 -60 40 -45 78 8 23 15 25 72 28 l63 3 3 53 c2 41 6 51 15 43
8 -6 18 -6 27 -1z m4304 -16 c4 -9 4 -19 2 -21 -8 -8 -26 8 -26 23 0 19 16 18
24 -2z m-7545 -148 c-5 -6 -9 -36 -9 -68 l0 -58 35 0 c38 0 60 -26 34 -41 -46
-26 -52 -35 -39 -59 7 -13 8 -25 3 -29 -5 -3 -22 -26 -37 -51 l-27 -45 7 57
c7 60 5 63 -41 70 -15 2 -23 -8 -40 -52 l-20 -55 -5 60 -5 60 -35 0 c-35 0
-35 0 -46 -60 -11 -63 -15 -60 -29 28 -5 34 -8 37 -40 37 l-35 0 0 -60 c0 -33
-4 -60 -8 -60 -5 0 -14 23 -21 51 -7 28 -19 53 -27 56 -7 3 -16 13 -19 24 -4
12 -16 19 -33 19 l-27 1 23 18 c26 23 28 39 6 69 -11 16 -22 21 -35 17 -17 -6
-18 -3 -10 18 5 14 15 43 21 66 6 22 15 41 19 41 5 0 13 -37 17 -82 l9 -83 35
0 c35 0 35 0 38 50 3 70 11 115 21 115 5 0 19 -36 31 -81 23 -79 23 -80 54
-77 29 3 31 6 31 43 0 22 -4 62 -8 88 -9 65 8 59 49 -16 39 -73 46 -79 78 -71
33 8 33 23 1 103 -13 35 -22 68 -18 74 3 5 30 -17 59 -49 32 -36 49 -63 43
-68z m3806 40 l90 -49 0 -121 c0 -115 2 -124 31 -187 18 -37 48 -84 68 -106
20 -22 36 -43 36 -47 0 -3 -24 -49 -54 -102 l-54 -97 -53 49 c-74 69 -141 176
-175 280 -25 77 -29 104 -29 199 0 78 6 128 19 173 10 34 22 61 25 60 3 -2 47
-25 96 -52z m-4870 -1 c0 -27 -3 -30 -30 -30 -21 0 -31 5 -33 18 -6 33 6 49
35 45 24 -3 28 -8 28 -33z m1135 -25 c0 -5 -7 -10 -16 -10 -8 0 -12 5 -9 10 3
6 10 10 16 10 5 0 9 -4 9 -10z m504 -6 c9 -24 7 -127 -4 -144 -8 -13 -13 -12
-37 6 -22 16 -29 31 -31 64 -3 37 1 46 25 66 34 28 39 29 47 8z m-349 -55 l37
-41 -28 -29 c-33 -35 -50 -37 -58 -6 -9 34 -7 117 3 117 5 0 25 -18 46 -41z
m7384 -84 l0 -30 -33 38 c-39 43 -58 46 -91 13 l-24 -24 -21 23 c-18 19 -20
27 -11 44 14 25 16 25 71 6 48 -17 64 -10 83 35 10 23 11 22 18 -25 4 -27 7
-63 8 -80z m631 115 c0 -5 -5 -10 -11 -10 -5 0 -7 5 -4 10 3 6 8 10 11 10 2 0
4 -4 4 -10z m-7840 -25 c18 -22 8 -50 -19 -50 -32 0 -49 28 -32 49 17 20 35
20 51 1z m2261 -49 c27 -32 49 -61 49 -66 0 -11 -54 -29 -117 -40 -59 -10
-140 0 -197 24 l-38 16 55 62 55 63 72 -1 71 0 50 -58z m2913 48 c7 -19 -10
-44 -30 -44 -18 0 -64 22 -64 30 0 7 53 27 76 29 7 1 15 -6 18 -15z m2596 1
c0 -3 -14 -29 -31 -58 l-31 -52 6 49 c3 28 12 53 19 58 14 9 37 11 37 3z
m-1787 -19 c11 -28 -31 -37 -52 -12 -10 11 -8 15 6 19 33 8 41 7 46 -7z
m-6963 -36 c0 -5 -5 -10 -11 -10 -5 0 -7 5 -4 10 3 6 8 10 11 10 2 0 4 -4 4
-10z m5930 -55 c-36 -64 -35 -67 36 -112 24 -15 44 -32 44 -38 -1 -28 -22 -40
-82 -45 l-63 -5 0 -105 0 -105 64 -6 c59 -6 81 -18 80 -44 0 -5 -23 -26 -51
-45 -28 -19 -53 -39 -55 -45 -2 -5 20 -48 48 -95 l50 -85 -52 50 c-145 141
-259 308 -259 381 0 18 11 74 24 125 22 84 29 98 65 130 38 34 172 112 179
104 2 -2 -10 -29 -28 -60z m665 46 l30 -7 -45 -26 c-25 -14 -69 -36 -98 -49
l-53 -22 -29 34 c-15 19 -25 37 -22 41 12 12 115 37 152 36 19 0 49 -3 65 -7z
m1982 -13 c-3 -8 -6 -5 -6 6 -1 11 2 17 5 13 3 -3 4 -12 1 -19z m277 10 c11
-10 8 -19 -17 -50 -17 -21 -32 -37 -34 -35 -4 5 28 97 33 97 3 0 11 -6 18 -12z
m241 -13 c0 -13 -8 -21 -22 -23 -17 -3 -23 2 -23 16 0 10 3 22 7 26 13 13 38
1 38 -19z m1088 13 c7 -21 -4 -38 -23 -38 -23 0 -34 16 -26 35 7 18 43 20 49
3z m-10135 -111 c2 -28 -1 -47 -7 -47 -6 0 -14 -1 -18 -2 -9 -3 -14 69 -7 90
9 29 29 3 32 -41z m970 10 c31 -29 27 -45 -14 -53 -37 -7 -121 -1 -131 10 -3
3 6 20 20 39 22 29 29 33 64 29 21 -2 48 -14 61 -25z m7082 -12 c17 -25 28
-45 24 -45 -3 0 -24 14 -45 31 -32 25 -37 34 -28 45 6 8 13 14 15 14 2 0 17
-20 34 -45z m-8675 -21 c19 -20 16 -43 -7 -58 -21 -13 -51 2 -56 26 -3 16 23
48 38 48 5 0 16 -7 25 -16z m9495 -9 c-7 -9 -15 -13 -17 -11 -7 7 7 26 19 26
6 0 6 -6 -2 -15z m-1790 -77 c0 -19 -11 -22 -47 -12 -33 9 -35 41 -5 63 l27
20 12 -27 c7 -15 12 -35 13 -44z m-6990 52 c0 -5 -2 -10 -4 -10 -3 0 -8 5 -11
10 -3 6 -1 10 4 10 6 0 11 -4 11 -10z m598 -18 c2 -7 -6 -12 -20 -12 -16 0
-32 -13 -53 -44 -16 -24 -31 -43 -33 -41 -2 2 2 21 9 43 15 52 84 91 97 54z
m8576 -28 c20 -8 21 -43 1 -50 -24 -10 -47 14 -34 37 11 21 11 21 33 13z m636
-10 c11 -12 11 -18 -2 -30 -16 -16 -48 -9 -48 10 0 13 20 36 31 36 4 0 12 -7
19 -16z m-10172 -26 c49 -26 58 -54 15 -44 -32 8 -75 37 -81 54 -6 18 19 14
66 -10z m160 -26 c3 -9 -2 -13 -14 -10 -9 1 -19 9 -22 16 -3 9 2 13 14 10 9
-1 19 -9 22 -16z m952 -20 c0 -34 -5 -42 -45 -70 -25 -18 -48 -32 -51 -32 -3
0 11 22 30 49 21 28 32 52 27 56 -16 9 -1 35 20 35 15 0 19 -7 19 -38z m155
28 c-3 -5 -11 -10 -16 -10 -6 0 -7 5 -4 10 3 6 11 10 16 10 6 0 7 -4 4 -10z
m-291 -19 c3 -4 -6 -19 -21 -32 l-26 -24 17 33 c17 34 22 37 30 23z m8884 -33
c-2 -15 -10 -23 -23 -23 -13 0 -21 8 -23 23 -3 18 1 22 23 22 22 0 26 -4 23
-22z m-548 -8 c0 -5 -4 -10 -9 -10 -5 0 -18 -3 -28 -6 -16 -5 -16 -4 1 10 23
18 36 20 36 6z m-2870 -167 c0 -7 -4 -13 -8 -13 -14 0 -42 98 -41 144 0 38 2
35 24 -39 13 -44 24 -86 25 -92z m-5272 145 c-3 -7 -11 -13 -18 -13 -7 0 -15
6 -17 13 -3 7 4 12 17 12 13 0 20 -5 18 -12z m62 2 c0 -13 -11 -13 -30 0 -12
8 -11 10 8 10 12 0 22 -4 22 -10z m9090 -21 c-12 -16 -25 -28 -28 -25 -5 6 36
56 45 56 3 0 -5 -14 -17 -31z m-9626 0 c14 -11 26 -31 26 -43 0 -37 -106 -243
-134 -262 -23 -15 -28 -15 -49 -1 -23 15 -120 197 -132 249 -5 21 -1 33 19 52
24 25 31 26 134 26 95 0 113 -3 136 -21z m768 -67 c74 -69 21 -192 -82 -192
-20 0 -42 11 -66 33 -30 27 -37 41 -38 73 -2 104 111 157 186 86z m8020 2 c9
-9 15 -21 12 -25 -3 -5 -12 -2 -20 6 -18 17 -30 19 -39 5 -3 -5 -36 -10 -73
-10 l-67 1 55 24 c60 26 102 26 132 -1z m-8338 7 c3 -5 -10 -18 -29 -30 -40
-23 -45 -18 -13 16 23 25 34 28 42 14z m8716 -93 c0 -4 -4 -10 -10 -13 -19
-12 -10 -40 22 -67 l33 -27 -33 -1 c-18 0 -41 -5 -52 -12 -25 -16 -37 -3 -16
17 15 16 15 20 -6 57 -19 33 -27 39 -49 36 -20 -3 -26 -1 -22 9 4 11 22 13 69
11 35 -2 64 -6 64 -10z m416 -1 c3 -3 -2 -17 -13 -30 -22 -30 -70 -32 -102 -3
-26 23 -26 33 -3 40 21 6 110 1 118 -7z m-3382 -154 c-48 -35 -195 -40 -271
-8 l-35 15 36 44 c33 40 43 45 109 59 l72 15 53 -56 c48 -51 51 -58 36 -69z
m3333 -14 c16 -16 5 -39 -18 -39 -12 0 -19 7 -19 18 0 31 17 41 37 21z m-9002
-49 c3 -6 -4 -10 -17 -10 -18 0 -20 2 -8 10 19 12 18 12 25 0z"/>
</g>
</svg>
